<mxfile host="app.diagrams.net" modified="2023-01-27T09:46:08.948Z" agent="5.0 (Windows NT 10.0; Win64; x64) AppleWebKit/537.36 (KHTML, like Gecko) Chrome/109.0.0.0 Safari/537.36" etag="B8Bj-gngKvEJNXQWgqSx" version="20.8.12" type="github">
  <diagram name="Page-1" id="AnMOG2GN0dtqPrZKWgCM">
    <mxGraphModel dx="1035" dy="584" grid="1" gridSize="10" guides="1" tooltips="1" connect="1" arrows="1" fold="1" page="1" pageScale="1" pageWidth="850" pageHeight="1100" math="0" shadow="0">
      <root>
        <mxCell id="0" />
        <mxCell id="1" parent="0" />
        <mxCell id="VSblfYa6hqs7yA2SXt9l-4" value="Control Center" style="swimlane;whiteSpace=wrap;html=1;" vertex="1" parent="1">
          <mxGeometry x="120" y="260" width="640" height="510" as="geometry" />
        </mxCell>
        <mxCell id="VSblfYa6hqs7yA2SXt9l-5" value="ARDUINO UNO R3" style="shadow=0;dashed=0;align=center;html=1;strokeWidth=1;shape=mxgraph.electrical.logic_gates.qfp_ic;labelNames=a,b,c,d,e,f,g,h,i,j,k,l,m,n,o,p,q,r,s,t,u,v,w,x,y,z,a1,b1,c1,d1,e1,f1,g1,h1,i1,j1,k1,l1,m1,n1;" vertex="1" parent="VSblfYa6hqs7yA2SXt9l-4">
          <mxGeometry x="380" y="155" width="200" height="200" as="geometry" />
        </mxCell>
        <mxCell id="VSblfYa6hqs7yA2SXt9l-6" value="" style="rounded=0;whiteSpace=wrap;html=1;" vertex="1" parent="VSblfYa6hqs7yA2SXt9l-4">
          <mxGeometry x="40" y="80" width="180" height="70" as="geometry" />
        </mxCell>
        <mxCell id="VSblfYa6hqs7yA2SXt9l-8" value="" style="verticalLabelPosition=bottom;shadow=0;dashed=0;align=center;html=1;verticalAlign=top;shape=mxgraph.electrical.radio.aerial_-_antenna_2;" vertex="1" parent="VSblfYa6hqs7yA2SXt9l-4">
          <mxGeometry x="60" y="90" width="39.5" height="50" as="geometry" />
        </mxCell>
        <mxCell id="VSblfYa6hqs7yA2SXt9l-9" value="" style="verticalLabelPosition=bottom;shadow=0;dashed=0;align=center;html=1;verticalAlign=top;shape=mxgraph.electrical.radio.aerial_-_antenna_2;direction=west;" vertex="1" parent="VSblfYa6hqs7yA2SXt9l-4">
          <mxGeometry x="150" y="90" width="43.45" height="55" as="geometry" />
        </mxCell>
        <mxCell id="VSblfYa6hqs7yA2SXt9l-10" value="RF Module" style="text;html=1;align=center;verticalAlign=middle;resizable=0;points=[];autosize=1;strokeColor=none;fillColor=none;fontStyle=1" vertex="1" parent="VSblfYa6hqs7yA2SXt9l-4">
          <mxGeometry x="80" y="150" width="80" height="30" as="geometry" />
        </mxCell>
        <mxCell id="VSblfYa6hqs7yA2SXt9l-11" value="Transmiter&lt;span style=&quot;white-space: pre;&quot;&gt;	&lt;/span&gt;/&lt;span style=&quot;white-space: pre;&quot;&gt;	&lt;/span&gt;Receiver" style="text;html=1;align=center;verticalAlign=middle;resizable=0;points=[];autosize=1;strokeColor=none;fillColor=none;" vertex="1" parent="VSblfYa6hqs7yA2SXt9l-4">
          <mxGeometry x="40" y="50" width="180" height="30" as="geometry" />
        </mxCell>
        <mxCell id="VSblfYa6hqs7yA2SXt9l-12" value="" style="endArrow=classic;startArrow=classic;html=1;rounded=0;" edge="1" parent="VSblfYa6hqs7yA2SXt9l-4">
          <mxGeometry width="50" height="50" relative="1" as="geometry">
            <mxPoint x="240" y="110" as="sourcePoint" />
            <mxPoint x="490" y="150" as="targetPoint" />
            <Array as="points">
              <mxPoint x="490" y="110" />
            </Array>
          </mxGeometry>
        </mxCell>
        <mxCell id="VSblfYa6hqs7yA2SXt9l-13" value="" style="rounded=0;whiteSpace=wrap;html=1;" vertex="1" parent="VSblfYa6hqs7yA2SXt9l-4">
          <mxGeometry x="40" y="360" width="180" height="110" as="geometry" />
        </mxCell>
        <mxCell id="VSblfYa6hqs7yA2SXt9l-14" value="GSM MODEM" style="text;html=1;align=center;verticalAlign=middle;resizable=0;points=[];autosize=1;strokeColor=none;fillColor=none;fontStyle=1" vertex="1" parent="VSblfYa6hqs7yA2SXt9l-4">
          <mxGeometry x="70" y="470" width="100" height="30" as="geometry" />
        </mxCell>
        <mxCell id="VSblfYa6hqs7yA2SXt9l-15" value="" style="pointerEvents=1;verticalLabelPosition=bottom;shadow=0;dashed=0;align=center;html=1;verticalAlign=top;shape=mxgraph.electrical.miscellaneous.loop_antenna" vertex="1" parent="VSblfYa6hqs7yA2SXt9l-4">
          <mxGeometry x="87.5" y="372.5" width="85" height="85" as="geometry" />
        </mxCell>
        <mxCell id="VSblfYa6hqs7yA2SXt9l-16" value="" style="endArrow=classic;startArrow=classic;html=1;rounded=0;entryX=0;entryY=1;entryDx=110;entryDy=0;entryPerimeter=0;" edge="1" parent="VSblfYa6hqs7yA2SXt9l-4" target="VSblfYa6hqs7yA2SXt9l-5">
          <mxGeometry width="50" height="50" relative="1" as="geometry">
            <mxPoint x="220" y="440" as="sourcePoint" />
            <mxPoint x="270" y="390" as="targetPoint" />
            <Array as="points">
              <mxPoint x="490" y="440" />
            </Array>
          </mxGeometry>
        </mxCell>
      </root>
    </mxGraphModel>
  </diagram>
</mxfile>
